HIERARCHY
ROOT hip
{
	OFFSET 0.000000 0.000000 0.000000 
	CHANNELS 6 Xposition Yposition Zposition Xrotation Zrotation Yrotation
	JOINT abdomen
	{
		OFFSET 0.000000 3.402643 0.000000 
		CHANNELS 3 Xrotation Zrotation Yrotation
		JOINT chest
		{
			OFFSET 0.000000 8.438565 -0.680529 
			CHANNELS 3 Xrotation Zrotation Yrotation
			JOINT neck
			{
				OFFSET 0.000000 10.207942 -0.272212 
				CHANNELS 3 Xrotation Zrotation Yrotation
				JOINT head
				{
					OFFSET 0.000000 3.130431 0.000000 
					CHANNELS 3 Xrotation Zrotation Yrotation
					End Site
					{
						OFFSET 0.000000 3.130435 0.000000 
					}
				}
			}
			JOINT lCollar
			{
				OFFSET 3.470700 6.669187 -0.816635 
				CHANNELS 3 Yrotation Zrotation Xrotation
				JOINT lShldr
				{
					OFFSET 3.198488 0.000000 0.000000 
					CHANNELS 3 Zrotation Yrotation Xrotation
					JOINT lForeArm
					{
						OFFSET 10.139888 0.000000 0.000000 
						CHANNELS 3 Yrotation Zrotation Xrotation
						JOINT lHand
						{
							OFFSET 8.370511 0.000000 0.000000 
							CHANNELS 3 Zrotation Yrotation Xrotation
							End Site
							{
								OFFSET 4.083176 0.000000 0.000000 
							}
						}
					}
				}
			}
			JOINT rCollar
			{
				OFFSET -3.470700 6.669187 -0.816635 
				CHANNELS 3 Yrotation Zrotation Xrotation
				JOINT rShldr
				{
					OFFSET -3.198488 0.000000 0.000000 
					CHANNELS 3 Zrotation Yrotation Xrotation
					JOINT rForeArm
					{
						OFFSET -10.139888 0.000000 0.000000 
						CHANNELS 3 Yrotation Zrotation Xrotation
						JOINT rHand
						{
							OFFSET -8.370511 0.000000 0.000000 
							CHANNELS 3 Zrotation Yrotation Xrotation
							End Site
							{
								OFFSET -4.083176 0.000000 0.000000 
							}
						}
					}
				}
			}
		}
	}
	JOINT lThigh
	{
		OFFSET 5.308129 -1.633274 1.361059 
		CHANNELS 3 Xrotation Zrotation Yrotation
		JOINT lShin
		{
			OFFSET -2.041588 -20.007561 0.000000 
			CHANNELS 3 Xrotation Zrotation Yrotation
			JOINT lFoot
			{
				OFFSET 0.000000 -19.190928 -1.224953 
				CHANNELS 3 Xrotation Yrotation Zrotation
				End Site
				{
					OFFSET 0.000000 -2.449906 4.627600 
				}
			}
		}
	}
	JOINT rThigh
	{
		OFFSET -5.308129 -1.633274 1.361059 
		CHANNELS 3 Xrotation Zrotation Yrotation
		JOINT rShin
		{
			OFFSET 2.041588 -20.007561 0.000000 
			CHANNELS 3 Xrotation Zrotation Yrotation
			JOINT rFoot
			{
				OFFSET 0.000000 -19.190928 -1.224953 
				CHANNELS 3 Xrotation Yrotation Zrotation
				End Site
				{
					OFFSET 0.000000 -2.449906 4.627600 
				}
			}
		}
	}
}
MOTION
Frames: 8
Frame Time: 0.033333
0.005094 43.638275 0.309210 1.150946 -6.912681 83.445274 0.000000 0.000000 0.000000 7.709839 -5.371215 5.054729 26.788006 2.074144 0.030408 2.939393 0.262385 -13.512354 3.272225 26.455566 22.938517 -102.075432 -5.125625 -3.244105 -40.592892 3.737772 22.409035 -6.680279 15.367394 48.555958 -4.409537 -23.377094 22.474453 79.982544 15.281428 75.284309 18.032598 -30.797722 -21.538300 24.353300 -5.858247 -10.999693 -4.355227 10.415481 20.593922 63.918934 8.705399 -0.812583 4.156956 -5.094988 -19.412056 -8.449979 1.180665 1.762623 19.885344 0.923487 0.965555 -9.194369 -9.341654 24.684837 
-0.038512 43.687107 0.514017 1.180143 -6.785683 83.297867 0.000000 0.000000 0.000000 7.754447 -5.012572 5.137831 24.779087 0.917102 -0.043611 1.952813 0.552895 -13.658214 4.947443 25.814726 22.194984 -101.692131 -4.275719 -3.481101 -41.004391 2.427191 21.454441 -4.339527 13.870805 49.428944 -3.120249 -24.668716 22.912523 79.825867 17.912384 74.560059 17.267300 -29.889393 -22.090258 24.139538 -5.815678 -10.997150 -9.275420 10.317247 20.238226 69.189369 10.510104 -0.588961 5.966659 -2.538945 -19.037369 -5.909072 1.578699 1.811383 19.020712 0.565799 0.832536 -10.397952 -9.124684 24.761732 
-0.114408 43.747837 0.619019 1.553140 -6.560110 83.024574 0.000000 0.000000 0.000000 7.851198 -4.904988 5.154539 22.393017 -0.349219 -0.125836 0.301992 0.763402 -13.695362 6.580644 25.030750 21.521793 -101.239182 -3.657052 -3.759023 -41.291702 1.185929 20.752750 -2.503599 12.272590 50.038128 -1.954167 -25.921715 23.342169 79.476768 21.165630 73.587646 16.348976 -28.412474 -22.718756 23.824310 -5.932528 -11.052889 -13.708526 9.430242 19.555218 71.870705 11.242955 -0.486171 6.050887 -0.410617 -18.441528 -3.600299 1.463721 1.694779 18.412281 0.318738 0.741193 -11.503573 -8.854178 24.804852 
-0.223815 43.828606 0.651977 2.102644 -6.323899 82.521454 0.000000 0.000000 0.000000 7.988409 -4.903362 5.151782 19.306671 -1.768402 -0.208205 -2.130682 1.036236 -13.487413 8.316608 24.108505 20.854580 -100.778069 -3.204210 -4.046388 -41.474895 0.280635 20.749146 -1.794720 11.384291 50.271217 -0.644830 -27.344204 23.881620 79.205841 24.794930 72.591179 15.020547 -27.065639 -22.583017 23.113588 -5.133480 -11.017675 -17.494541 8.324562 18.807348 71.431274 10.705990 -0.582146 5.300394 1.547771 -18.624966 -1.413542 1.072400 1.519606 17.926622 0.230932 0.679499 -12.491035 -8.645618 24.777283 
-0.333078 43.918003 0.634936 2.818228 -6.008402 81.784424 0.000000 0.000000 0.000000 8.196412 -5.074857 5.099505 15.642771 -3.323993 -0.301424 -5.277917 1.441041 -12.807144 9.921486 23.124310 20.313351 -100.287277 -2.769486 -4.363347 -41.663292 -0.365242 20.884146 -1.776097 11.395160 50.299332 0.708289 -28.712435 24.493172 78.918869 28.385172 71.606689 13.678791 -26.222414 -21.664930 22.184559 -3.619052 -10.879335 -20.256691 7.201419 18.123713 68.088043 9.085200 -0.852679 4.388102 3.465291 -19.380398 0.838807 0.390256 1.245264 17.284140 0.182416 0.617548 -13.187387 -8.168743 25.118050 
-0.433356 43.999111 0.595423 3.523076 -5.663175 80.930977 0.000000 0.000000 0.000000 8.474304 -5.322451 5.038054 11.506531 -4.818989 -0.400069 -9.044111 1.982267 -11.655828 11.250872 22.174719 19.914633 -99.709114 -2.340226 -4.729927 -41.837193 -0.946254 20.893604 -1.971308 11.912071 50.264515 1.909620 -29.917065 25.000000 78.701508 31.677998 70.721169 12.938629 -25.554945 -21.848434 21.527435 -2.800183 -10.839963 -21.921993 6.326934 17.645052 62.362484 6.752238 -1.192626 3.403618 5.211119 -19.881884 3.072343 -0.399576 0.961912 16.622341 0.143798 0.546954 -13.930251 -7.482257 25.561411 
-0.532160 44.048588 0.559813 3.699158 -5.574373 79.825531 0.000000 0.000000 0.000000 8.569192 -5.089336 5.083326 6.767957 -6.167341 -0.475418 -13.330125 2.890142 -10.215880 12.387719 21.264843 19.631681 -99.084763 -1.869572 -5.126285 -41.849937 -1.282389 20.869932 -2.622264 12.324464 50.084373 3.025983 -30.000000 25.000000 78.759598 34.773510 70.019417 12.890769 -25.088341 -22.898636 21.219227 -2.869056 -10.903414 -22.592180 6.246123 17.551958 54.269905 3.989412 -1.492003 2.407632 6.442454 -20.036903 5.142529 -0.614504 0.845940 16.019686 0.007172 0.457422 -14.614832 -6.707396 26.334028 
-0.623487 44.042198 0.549616 3.141600 -5.889636 78.553963 0.000000 0.000000 0.000000 8.391142 -4.135100 5.298264 1.643929 -7.186895 -0.543025 -17.986916 4.193571 -8.736310 13.327099 20.505524 19.420713 -98.536835 -1.422242 -5.482842 -41.645985 -1.297980 20.656120 -3.649002 12.432388 49.798866 4.127945 -30.000000 25.000000 78.998894 37.441536 69.515434 13.071835 -25.459389 -22.730423 21.162895 -2.636437 -10.848604 -22.502701 7.123416 17.827604 44.667583 1.139073 -1.675611 1.784083 7.545734 -20.644976 7.285720 0.146984 1.046989 14.825967 -0.451490 0.262461 -14.920731 -5.994244 27.028574 
